<svg id="Layer_1" data-name="Layer 1" xmlns="http://www.w3.org/2000/svg" viewBox="0 0 366.76 328"><defs><style>.cls-1{fill:#fdbf3e;}.cls-2{fill:#9079b6;}.cls-3{fill:#f05276;}.cls-4{fill:#fff;}</style></defs><title>vid-with-me-logo</title><circle class="cls-1" cx="134" cy="89" r="89"/><path class="cls-1" d="M103.62,75a4,4,0,0,0-3.75,5.39l14.09,38a4,4,0,0,0,2.9,2.52,4.09,4.09,0,0,0,.85.09,4,4,0,0,0,2.83-1.17l23.91-23.91A4,4,0,0,0,143,89.34L105,75.25a3.92,3.92,0,0,0-1.39-.25Z" transform="translate(-55.62 -75)"/><circle class="cls-2" cx="250" cy="168" r="99"/><path class="cls-2" d="M419.33,170.05a3.86,3.86,0,0,0-1.4-.09l-42.39,4.85a4,4,0,0,0-3,6L391,211.3a4,4,0,0,0,2.47,1.82,4,4,0,0,0,4.26-1.64l24-35.3a4,4,0,0,0-2.36-6.13Z" transform="translate(-55.62 -75)"/><circle class="cls-3" cx="116" cy="212" r="116"/><path class="cls-3" d="M79.19,349a4.09,4.09,0,0,0-.85.09,4,4,0,0,0-2.9,2.52l-15.57,42A4,4,0,0,0,63.62,399a3.92,3.92,0,0,0,1.39-.25l42-15.57a4,4,0,0,0,1.44-6.58L82,350.17A4,4,0,0,0,79.19,349Z" transform="translate(-55.62 -75)"/><path class="cls-4" d="M179.8,153a16.62,16.62,0,0,0-16.62,16.63V326.06a16.63,16.63,0,0,0,25.49,14.07l124.12-78.22a16.64,16.64,0,0,0,0-28.14L188.67,155.56A16.64,16.64,0,0,0,179.8,153Z" transform="translate(-55.62 -75)"/></svg>